<?xml version="1.0" standalone="no"?>
<!DOCTYPE svg PUBLIC "-//W3C//DTD SVG 20010904//EN"
 "http://www.w3.org/TR/2001/REC-SVG-20010904/DTD/svg10.dtd">
<svg version="1.0" xmlns="http://www.w3.org/2000/svg"
 width="512.000000pt" height="512.000000pt" viewBox="0 0 512.000000 512.000000"
 preserveAspectRatio="xMidYMid meet">

<g transform="translate(0.000000,512.000000) scale(0.100000,-0.100000)"
fill="#000000" stroke="none">
<path d="M435 5108 c-198 -37 -388 -230 -424 -432 -15 -83 -15 -2869 0 -2952
37 -206 227 -396 433 -433 34 -6 191 -11 368 -11 l308 0 0 -575 c0 -630 -1
-617 59 -668 37 -31 85 -42 139 -32 33 6 111 81 672 641 l635 634 996 0 c676
0 1014 3 1055 11 209 38 396 225 433 433 15 83 15 2869 0 2952 -37 208 -224
395 -433 433 -77 14 -4167 13 -4241 -1z m4209 -320 c54 -16 128 -90 144 -144
18 -60 18 -2828 0 -2888 -16 -54 -90 -128 -144 -144 -31 -9 -290 -12 -1078
-12 -867 0 -1042 -2 -1069 -14 -18 -8 -252 -235 -542 -525 l-510 -511 -5 474
c-5 460 -6 475 -26 502 -11 15 -33 37 -48 48 -26 20 -43 21 -454 26 -392 5
-430 7 -465 24 -48 24 -101 85 -115 135 -18 57 -17 2827 0 2885 15 50 89 127
138 143 53 17 4117 18 4174 1z"/>
<path d="M1962 4149 c-134 -22 -298 -123 -380 -233 -175 -236 -189 -533 -36
-773 18 -29 233 -274 478 -546 325 -361 454 -498 477 -506 43 -15 83 -14 122
2 38 16 878 942 943 1040 131 196 150 444 50 652 -92 193 -247 318 -449 359
-161 34 -263 15 -464 -83 l-143 -70 -142 70 c-192 94 -298 114 -456 88z m376
-408 c135 -67 194 -91 222 -91 28 0 87 24 222 91 210 105 253 115 354 83 47
-14 72 -31 121 -79 53 -54 64 -71 84 -134 26 -89 22 -176 -14 -254 -16 -36
-126 -166 -392 -463 -204 -227 -372 -413 -375 -413 -3 0 -171 186 -375 413
-266 297 -376 427 -392 463 -86 188 11 410 207 474 14 5 54 7 90 5 59 -3 82
-12 248 -95z"/>
</g>
</svg>
