<svg xmlns="http://www.w3.org/2000/svg" width="193.659" height="91.893" viewBox="0 0 193.659 91.893">
  <path id="super_like_button" data-name="super like button" d="M243.563,266.061a35.662,35.662,0,0,0-4.386-10.957h0C231.332,242.13,215.783,234,198.829,234s-32.5,8.134-40.348,21.108h0a35.662,35.662,0,0,0-4.386,10.957c-24.342,56.87-52.1,59.828-52.1,59.828H295.659S267.9,322.931,243.563,266.061Zm-44.734,39.382c-20.777,0-37.62-14.539-37.62-32.474s16.843-32.474,37.62-32.474,37.62,14.539,37.62,32.474-16.834,32.494-37.62,32.494Z" transform="translate(-102 -233.996)" fill="#2465bb"/>
</svg>
