<?xml version="1.0" standalone="no"?>
<!DOCTYPE svg PUBLIC "-//W3C//DTD SVG 20010904//EN"
 "http://www.w3.org/TR/2001/REC-SVG-20010904/DTD/svg10.dtd">
<svg version="1.0" xmlns="http://www.w3.org/2000/svg"
 width="512.000000pt" height="512.000000pt" viewBox="0 0 512.000000 512.000000"
 preserveAspectRatio="xMidYMid meet">

<g transform="translate(0.000000,512.000000) scale(0.100000,-0.100000)"
fill="#000000" stroke="none">
<path d="M1163 5102 c-100 -35 -171 -115 -193 -216 -8 -36 -10 -710 -8 -2356
l3 -2305 21 -46 c31 -66 78 -114 142 -146 l57 -28 1375 0 1375 0 57 28 c64 32
111 80 142 146 l21 46 0 2335 0 2335 -21 46 c-31 66 -78 114 -142 146 l-57 28
-1360 2 c-1285 2 -1363 2 -1412 -15z m2746 -196 c36 -19 51 -55 51 -126 l0
-60 -410 0 c-446 0 -454 -1 -478 -55 -7 -14 -12 -35 -12 -45 0 -10 -5 -31 -12
-45 -25 -54 -31 -55 -488 -55 -457 0 -463 1 -488 55 -7 14 -12 35 -12 45 0 10
-5 31 -12 45 -24 54 -32 55 -478 55 l-410 0 0 63 c1 68 15 103 51 123 37 21
2658 20 2698 0z m-2004 -438 c36 -63 98 -112 167 -133 76 -22 900 -22 976 0
69 21 131 70 167 133 l30 51 358 1 357 0 0 -1960 0 -1960 -1400 0 -1400 0 0
1960 0 1960 358 0 357 -1 30 -51z m2055 -4128 c0 -32 -5 -71 -12 -85 -26 -58
48 -55 -1387 -55 -1002 0 -1326 3 -1346 12 -38 17 -55 58 -55 128 l0 60 1400
0 1400 0 0 -60z"/>
<path d="M1411 4106 c-53 -29 -50 57 -51 -1644 0 -1721 -3 -1624 55 -1650 20
-9 299 -12 1146 -12 1217 0 1161 -3 1187 55 17 38 17 3172 0 3210 -26 58 30
55 -1190 55 -913 -1 -1127 -3 -1147 -14z m2149 -1646 l0 -1460 -1000 0 -1000
0 0 1460 0 1460 1000 0 1000 0 0 -1460z"/>
<path d="M2245 3576 c-153 -48 -251 -161 -278 -320 -30 -178 74 -397 279 -585
85 -78 201 -155 266 -177 44 -14 52 -14 96 0 65 22 181 99 266 177 150 137
255 306 278 446 40 241 -123 456 -357 471 -75 5 -166 -14 -213 -44 -16 -10
-27 -12 -35 -6 -7 6 -40 20 -74 31 -71 24 -166 27 -228 7z m178 -199 c18 -8
47 -27 66 -43 24 -20 45 -29 71 -29 26 0 47 9 71 29 65 55 144 71 212 42 41
-17 91 -74 107 -122 40 -120 -70 -324 -256 -474 -107 -85 -126 -94 -163 -75
-49 25 -175 131 -223 187 -132 155 -175 283 -129 383 44 96 151 140 244 102z"/>
<path d="M2724 2121 c-30 -13 -64 -59 -64 -88 0 -37 23 -73 90 -138 l61 -60
-397 -5 -396 -5 -29 -33 c-16 -18 -29 -44 -29 -58 0 -33 25 -81 49 -94 13 -6
162 -10 410 -10 215 0 391 -3 391 -7 0 -4 -34 -41 -75 -84 -81 -82 -89 -104
-60 -159 19 -37 43 -50 91 -50 35 0 48 11 202 163 90 89 170 174 178 189 32
61 26 70 -163 260 -183 183 -208 200 -259 179z"/>
</g>
</svg>
