<?xml version='1.0' encoding='utf-8'?>
<!DOCTYPE svg PUBLIC '-//W3C//DTD SVG 1.1//EN' 'http://www.w3.org/Graphics/SVG/1.1/DTD/svg11.dtd'>
<svg version="1.1" xmlns="http://www.w3.org/2000/svg" viewBox="0 0 512 512" xmlns:xlink="http://www.w3.org/1999/xlink" enable-background="new 0 0 512 512">
  <g>
    <g>
      <g>
        <path d="m291.7,290.3c0,44.9-34.8,81.5-77.5,81.5s-77.5-36.6-77.5-81.5c0-44.9 34.8-81.5 77.5-81.5 14.2,0 27.5,4 39,11.1l-52.6,46.8c-8.4,7.5-9.2,20.4-1.7,28.8 7.5,8.4 20.4,9.2 28.8,1.7l53.5-47.6c6.7,12 10.5,25.9 10.5,40.7zm84.9,0c0,93.6-72.8,169.8-162.4,169.8-89.5,0-162.4-76.2-162.4-169.8 0-93.7 72.8-169.8 162.4-169.8 40.1,0 76.8,15.3 105.2,40.6l-34.8,31c-19.7-15.1-44-24-70.4-24-65.2-0.1-118.3,54.8-118.3,122.2 0,67.5 53.1,122.3 118.3,122.3s118.3-54.9 118.3-122.3c0-25.3-7.5-48.8-20.2-68.3l34-30.3c19.1,27.8 30.3,61.9 30.3,98.6zm105.1-187.4l-33.5-1.8 31.9-28.4c8.4-7.5 9.2-20.4 1.7-28.8-7.5-8.4-20.4-9.2-28.8-1.7l-33.5,29.8 2-39.6c0.6-11.3-8.1-20.9-19.4-21.4-11.2-0.5-20.8,8.1-21.4,19.4l-4,79.7-26.7,23.7c-36-33.6-83.7-54.1-135.8-54.1-112-1.42109e-14-203.2,94.5-203.2,210.6 0,116.2 91.2,210.7 203.2,210.7 112,0 203.2-94.5 203.2-210.7 0-47.2-15-90.8-40.4-125.9l27.9-24.8 74.6,4.1c0.4,0 0.8,0 1.1,0 10.8,0 19.8-8.4 20.4-19.3 0.6-11.2-8-20.8-19.3-21.5z"/>
      </g>
    </g>
  </g>
</svg>
